<svg height="31" viewBox="0 0 47 31" width="47" xmlns="http://www.w3.org/2000/svg"><g fill="#fff"><path d="m19.499 20.4730468c0 7.9926634-3.3054071 10.5289532-9.51827314 10.5289532-7.11840136 0-9.48172686-3.5374034-9.48172686-10.908686v-20.091314h4.68401368v19.7257959c0 2.6926503-.17664031 7.7550766 4.83222912 7.7550766 4.13785 0 4.8789271-3.007402 4.8789271-7.545919v-19.9349535h4.6048301z"/><path d="m34.3858108 3.70546667v27.29653333h-4.7736216v-27.29653333h-7.1131892v-3.70346667h19v3.70346667z"/><path d="m45.499 28.5081779c0 1.3735585-1.11891 2.4938221-2.5020644 2.4938221-1.3852188 0-2.4979356-1.1202636-2.4979356-2.4938221 0-1.3817957 1.1127168-2.5061779 2.4979356-2.5061779 1.3831544 0 2.5020644 1.1243822 2.5020644 2.5061779"/></g></svg>